<?xml version="1.0" encoding="UTF-8" standalone="no"?>
<svg
   fill="#ffffff"
   width="357.25px"
   height="124px"
   viewBox="0 0 357.25 124"
   version="1.1"
   id="svg6"
   sodipodi:docname="logo.svg"
   inkscape:version="1.3 (0e150ed6c4, 2023-07-21)"
   xmlns:inkscape="http://www.inkscape.org/namespaces/inkscape"
   xmlns:sodipodi="http://sodipodi.sourceforge.net/DTD/sodipodi-0.dtd"
   xmlns="http://www.w3.org/2000/svg"
   xmlns:svg="http://www.w3.org/2000/svg">
  <defs
     id="defs6">
    <rect
       x="795.84009"
       y="82.724632"
       width="293.65433"
       height="160.53609"
       id="rect136-4-0" />
    <rect
       x="795.84009"
       y="82.724632"
       width="775.01281"
       height="269.70259"
       id="rect136-4-0-1" />
  </defs>
  <sodipodi:namedview
     id="namedview6"
     pagecolor="#e82c2c"
     bordercolor="#666666"
     borderopacity="1.0"
     inkscape:showpageshadow="2"
     inkscape:pageopacity="0.0"
     inkscape:pagecheckerboard="0"
     inkscape:deskcolor="#d1d1d1"
     inkscape:zoom="1.3342372"
     inkscape:cx="178.37908"
     inkscape:cy="62.20783"
     inkscape:window-width="1916"
     inkscape:window-height="1036"
     inkscape:window-x="0"
     inkscape:window-y="20"
     inkscape:window-maximized="1"
     inkscape:current-layer="sc-logo-text" />
  <g
     id="sc-logo-text"
     transform="matrix(0.19490139,0,0,0.19490139,-48.297687,-38.680565)">
    <path
       class="st1"
       d="m 617.1,258 v -32.8 c -7.2,-0.5 -14.2,-0.9 -21.8,-1.4 -0.4,13.9 0.4,27.5 0.2,41.1 v 40.7 c -5.6,-2 -11.2,-4 -17.1,-6.1 -0.4,-29 -0.7,-58.3 -1.1,-87.7 1.4,-0.2 2.5,-0.2 3.8,-0.2 h 40.5 c 2,0 4.1,0.2 6.1,0.5 3.6,0.7 5.9,2.9 6.7,6.5 0.4,1.8 0.5,3.8 0.5,5.8 v 38.9 c 0,1.6 -0.2,3.2 -0.5,4.9 -0.7,3.1 -2.5,4.3 -5.6,4 -2,-0.2 -4,-0.9 -5.9,-1.3 -1.1,-0.2 -2.2,-0.5 -3.8,-0.9 6.8,19.6 13.1,38.9 18.5,59.1 -1.4,-0.7 -2.2,-1.3 -3.1,-1.8 -4.1,-2.7 -8.3,-5.6 -12.4,-8.1 -1.6,-1.1 -2.5,-2.3 -3.1,-4.1 -5.8,-16.4 -11.5,-32.6 -17.5,-48.8 -1.3,-3.6 -1.4,-7.4 -1.1,-11.7 5.5,1 11.1,2.1 16.7,3.4 z"
       id="path59"
       style="fill:#ffffff" />
    <path
       class="st1"
       d="m 639,330.6 -1.8,-0.9 c -1.1,-0.5 -1.8,-1 -2.4,-1.4 -0.2,-0.2 -0.5,-0.3 -0.7,-0.5 -1.4,-0.9 -2.8,-1.8 -4.2,-2.8 -2.7,-1.8 -5.5,-3.7 -8.2,-5.3 -1.8,-1.2 -2.8,-2.6 -3.5,-4.7 -6.9,-19.6 -12.3,-34.7 -17.4,-48.7 -1.2,-3.4 -1.5,-7.1 -1.1,-12.1 l 0.1,-1 1,0.2 c 2.9,0.7 6,1.3 9,2 2.1,0.5 4.3,0.9 6.5,1.4 V 226 c -3.6,-0.3 -7.1,-0.5 -10.7,-0.7 -3,-0.2 -6.1,-0.4 -9.3,-0.6 -0.2,7.3 0,14.6 0.1,21.6 0.1,6.1 0.2,12.4 0.1,18.5 v 42 l -1.4,-0.5 c -5.5,-2 -11.1,-3.9 -16.9,-6.1 l -0.6,-0.2 -1.1,-89.1 0.8,-0.1 c 1.5,-0.2 2.6,-0.2 3.9,-0.2 h 40.5 c 2.1,0 4.3,0.2 6.3,0.6 4.1,0.8 6.6,3.3 7.4,7.2 0.4,1.8 0.6,3.9 0.6,5.9 v 38.9 c 0,1.7 -0.2,3.4 -0.6,5.1 -0.8,3.5 -3,5.1 -6.6,4.7 -1.2,-0.1 -2.5,-0.4 -3.7,-0.7 -0.8,-0.2 -1.6,-0.4 -2.3,-0.5 -0.6,-0.1 -1.3,-0.3 -2,-0.5 -0.1,0 -0.2,0 -0.2,-0.1 7.9,22.6 13.4,40.4 18,57.6 z m -37.7,-75.1 c -0.3,4.2 0.1,7.4 1.1,10.3 5.2,14.1 10.5,29.1 17.5,48.8 0.5,1.7 1.3,2.7 2.7,3.7 2.7,1.7 5.6,3.5 8.3,5.4 1.4,0.9 2.8,1.8 4.1,2.7 0.2,0.1 0.5,0.3 0.8,0.5 0.1,0.1 0.3,0.2 0.4,0.2 -4.6,-16.8 -10.2,-34.5 -18,-56.9 l -0.5,-1.5 1.6,0.4 c 0.7,0.2 1.3,0.3 1.9,0.5 0.7,0.2 1.3,0.3 1.8,0.4 0.8,0.2 1.7,0.4 2.5,0.6 1.2,0.3 2.3,0.6 3.4,0.7 2.6,0.3 4,-0.7 4.6,-3.3 0.3,-1.5 0.5,-3.1 0.5,-4.7 v -38.9 c 0,-1.9 -0.2,-3.9 -0.5,-5.6 -0.6,-3.2 -2.6,-5.1 -6,-5.8 -1.8,-0.3 -4,-0.5 -5.9,-0.5 h -40.5 c -1,0 -1.9,0 -2.9,0.1 l 1.1,86.2 c 5.3,1.9 10.3,3.7 15.3,5.5 v -39.4 c 0.1,-6.1 0,-12.4 -0.1,-18.4 -0.1,-7.4 -0.3,-15 -0.1,-22.6 V 223 l 0.9,0.1 c 3.5,0.3 6.9,0.5 10.2,0.7 3.9,0.2 7.7,0.5 11.6,0.8 l 0.8,0.1 v 34.7 l -1.1,-0.2 c -2.5,-0.6 -5,-1.1 -7.5,-1.6 -2.6,-0.9 -5.3,-1.5 -8,-2.1 z M 443.2,239.6 c 0,-7.2 0.2,-14.2 0,-21.1 0,-3.2 -2.3,-5.6 -5.8,-6.3 -2.2,-0.5 -4.5,-0.7 -6.8,-0.7 -11.2,0 -22.3,0.2 -33.7,0.2 -7,0 -10.3,3.2 -10.4,10.3 -0.2,8.8 0,17.8 0,26.6 0,4 1.4,7.2 5,9.2 6.7,3.8 13.1,7.9 19.6,11.7 4.3,2.5 9,4.7 13.1,7 v 18.4 c -6.8,3.1 -13.5,5.9 -20.7,9 v -20.7 c -3.6,0.5 -13.7,4.9 -17.3,7.4 v 28.8 c 0,0.7 0.2,1.4 0.4,2.2 0.7,2.7 2.3,3.6 4.9,2.7 1.8,-0.5 3.4,-1.4 5,-2.5 11,-7 22.5,-13 34.6,-17.8 2.3,-0.9 4.5,-2.3 6.7,-3.8 2.7,-2 4.1,-4.9 4.1,-8.3 0,-7.2 0,-14.6 0.2,-21.8 0,-2.9 -1.3,-4.9 -3.8,-6.1 -2,-0.9 -3.8,-2 -5.8,-3.1 -8.8,-5.2 -17.5,-10.3 -26.3,-15.7 -1.1,-0.7 -2.5,-2 -2.5,-2.9 -0.2,-5.8 -0.2,-11.7 -0.2,-17.6 7.4,-0.9 14.2,-1.3 21.4,-1.3 V 241 c 6.6,0.1 12.3,-0.7 18.3,-1.4 z"
       id="path60"
       style="fill:#ffffff" />
    <path
       class="st1"
       d="m 508.2,211.7 h -56 c -0.4,4 -0.4,7.6 0,11.3 6.7,0.2 12.8,-0.5 19.3,0 -0.2,23.6 -0.5,46.8 -0.7,70.2 6.3,-0.9 12.1,-1.8 17.8,-2.5 0,-1.3 0.2,-2.2 0.2,-3.2 0.2,-12.6 0.2,-25.2 0.2,-37.8 0,-7.9 0,-16 0.2,-23.9 0,-1.1 0.2,-2.2 0.4,-3.6 h 18.9 c -0.3,-3.8 -0.3,-7.1 -0.3,-10.5 z"
       id="path62"
       sodipodi:nodetypes="cccccccscccc"
       style="fill:#ffffff" />
    <path
       class="st1"
       d="m 469.8,294.3 v -1 c 0.1,-11.6 0.2,-23.2 0.4,-34.8 0.1,-11.5 0.3,-23 0.4,-34.5 -3.4,-0.2 -6.7,-0.1 -10.2,0 -2.6,0.1 -5.4,0.2 -8.2,0.1 h -0.8 l -0.1,-0.8 c -0.4,-3.8 -0.4,-7.5 0,-11.5 l 0.1,-0.8 h 57.7 v 0.9 c 0,3.4 0,6.6 0.2,10.4 v 0.9 h -19.1 v 0.1 c -0.1,1 -0.2,1.8 -0.2,2.6 -0.2,7.9 -0.2,16.1 -0.2,23.9 0,12.4 0,25.2 -0.2,37.8 0,0.5 0,1 -0.1,1.6 0,0.5 -0.1,1.1 -0.1,1.7 v 0.8 l -0.8,0.1 c -4,0.5 -8,1.1 -12.2,1.7 -1.8,0.3 -3.7,0.5 -5.7,0.8 z M 466,221.9 c 1.8,0 3.7,0.1 5.5,0.2 l 0.8,0.1 v 0.8 c -0.1,11.9 -0.2,23.6 -0.4,35.4 -0.1,11.3 -0.3,22.5 -0.3,33.8 1.6,-0.2 3.1,-0.5 4.6,-0.7 3.9,-0.6 7.7,-1.1 11.4,-1.6 0,-0.4 0,-0.7 0.1,-1 0,-0.5 0.1,-0.9 0.1,-1.4 0.2,-12.6 0.2,-25.4 0.2,-37.8 0,-7.9 0,-16 0.2,-24 0,-0.9 0.1,-1.8 0.3,-2.8 l 0.2,-1.6 h 18.8 c -0.1,-3.1 -0.1,-5.8 -0.1,-8.6 H 453 c -0.3,3.3 -0.3,6.4 0,9.6 2.5,0 4.9,0 7.3,-0.1 1.9,-0.2 3.8,-0.3 5.7,-0.3 z"
       id="path63"
       sodipodi:nodetypes="cccccccccccscccccsccscscccscccccccccsccccccccs"
       style="fill:#ffffff" />
    <path
       class="st1"
       d="m 569.9,297.9 -1.4,-0.3 c -4.2,-0.8 -8.2,-1.7 -12,-2.5 -1.9,-0.4 -3.9,-0.8 -5.9,-1.3 l -0.6,-0.1 -0.1,-0.6 c -1.2,-4.9 -2.4,-10 -3.8,-15.4 -3.5,-0.3 -6.9,-0.6 -10.3,-0.9 -3.4,-0.3 -6.8,-0.6 -10.2,-0.8 -0.8,2.8 -1.5,5.4 -2.1,8 l -1.5,5.7 -0.2,0.7 h -19.7 l 0.3,-1.2 c 2.4,-8.2 4.9,-16.4 7.3,-24.6 5.2,-17.4 10.6,-35.4 15.7,-53.2 l 0.2,-0.6 h 19.9 l 0.2,0.6 c 7.4,24.8 15,51.8 23.8,85 z M 544.2,212.6 H 527 c -5.1,17.6 -10.4,35.4 -15.6,52.6 -2.3,7.8 -4.6,15.6 -7,23.4 h 15.9 c 0.4,-1.7 0.9,-3.3 1.3,-5 0.7,-2.8 1.5,-5.7 2.3,-8.8 l 0.2,-0.7 0.7,0.1 c 3.7,0.3 7.3,0.6 11,0.9 3.6,0.3 7.3,0.6 11,0.9 h 0.6 l 0.2,0.6 c 1.4,5.4 2.6,10.5 3.8,15.5 1.8,0.4 3.6,0.8 5.3,1.1 m -11.2,-26.1 -1.2,-0.1 c -3.4,-0.2 -6.5,-0.5 -9.6,-0.7 l -7.5,-0.6 -1.1,-0.1 2.3,-9.2 c 2.1,-8.4 4,-16.3 5.9,-24.2 l 0.2,-0.7 h 2.3 l 0.2,0.7 c 0.9,3.5 1.7,7.1 2.6,10.7 1.8,7.5 3.7,15.2 5.7,23 z M 528.4,264 c 2.2,0.1 4.3,0.3 6.4,0.5 2.7,0.2 5.4,0.4 8.4,0.6 -1.8,-7.4 -3.6,-14.7 -5.4,-21.8 -0.7,-3 -1.5,-6 -2.2,-8.9 -1.8,7.4 -3.6,14.7 -5.5,22.5 z"
       id="path70"
       style="fill:#ffffff;fill-opacity:1" />
    <text
       xml:space="preserve"
       transform="matrix(1.28,0,0,1.28,-618.67507,626.91667)"
       id="text136"
       style="font-size:66.6667px;line-height:125%;font-family:dosis;-inkscape-font-specification:dosis;letter-spacing:0px;word-spacing:0px;white-space:pre;shape-inside:url(#rect136-4-0);display:inline;fill:#ffffff;fill-opacity:1;stroke:#ffffff;stroke-width:1px;stroke-linecap:butt;stroke-linejoin:miter;stroke-opacity:1"><tspan
         x="795.83984"
         y="145.22464"
         id="tspan5"><tspan
           style="font-weight:bold;font-family:sans-serif;-inkscape-font-specification:'sans-serif Bold'"
           id="tspan2">TRAD</tspan></tspan></text>
    <text
       xml:space="preserve"
       transform="matrix(1.28,0,0,1.28,28.523811,291.94495)"
       id="text136-0"
       style="font-size:149.648px;line-height:125%;font-family:dosis;-inkscape-font-specification:dosis;letter-spacing:0px;word-spacing:0px;white-space:pre;shape-inside:url(#rect136-4-0-1);display:inline;fill:#ffffff;fill-opacity:1;stroke:#ffffff;stroke-width:1px;stroke-linecap:butt;stroke-linejoin:miter;stroke-opacity:1"><tspan
         x="795.83984"
         y="223.0196"
         id="tspan7"><tspan
           style="font-weight:bold;font-family:sans-serif;-inkscape-font-specification:'sans-serif Bold'"
           id="tspan6">StarTrad</tspan></tspan></text>
  </g>
  <g
     id="sc-logo-chevrons"
     transform="matrix(0.19490139,0,0,0.19490139,-48.297687,-38.680565)">
    <g
       id="sc-logo-chevron-pair-18">
      <path
         class="st1"
         d="m 393.6,732.4 c 4.7,1.3 8.6,1.3 13.9,0.2 12.1,-2.3 22.5,-7.9 31.7,-15.8 1.8,-1.4 3.2,-3.2 4.7,-5 0.9,-1.3 1.4,-2.9 2,-4.3 -2.7,-2.2 -5.4,-1.8 -8.1,-1.6 -8.6,0.9 -16.6,3.8 -24.1,7.7 -6.8,3.6 -12.8,8.3 -17.5,14.4 -0.9,1.5 -1.7,3 -2.6,4.4 z"
         id="path71"
         style="fill:#ffffff" />
      <path
         class="st1"
         d="m 400.6,734.3 c -2.4,0 -4.7,-0.3 -7.2,-1 l -1.2,-0.3 0.6,-1 c 0.6,-1 1.1,-1.9 1.7,-3 0.3,-0.5 0.5,-1 0.8,-1.5 l 0.1,-0.1 c 4.5,-5.9 10.5,-10.8 17.8,-14.7 8.5,-4.4 16.5,-7 24.5,-7.8 h 0.6 c 2.5,-0.2 5.4,-0.4 8.2,1.9 l 0.5,0.4 -0.4,1.1 c -0.5,1.3 -1,2.8 -1.9,4 -1.5,1.8 -3,3.7 -4.9,5.2 -9.7,8.4 -20.5,13.8 -32.1,16 -2.6,0.5 -4.9,0.8 -7.1,0.8 z m -5.6,-2.5 c 4,0.9 7.5,0.9 12.3,-0.1 11.3,-2.2 21.8,-7.4 31.3,-15.6 1.8,-1.4 3.2,-3.2 4.6,-4.9 0.7,-0.9 1.1,-2.2 1.6,-3.4 -2.1,-1.4 -4.2,-1.2 -6.4,-1.1 h -0.5 c -7.7,0.8 -15.5,3.3 -23.8,7.6 -7.1,3.7 -12.7,8.4 -17.1,14.1 -0.3,0.5 -0.5,1 -0.8,1.4 -0.4,0.7 -0.8,1.4 -1.2,2 z m 183.4,-24.2 c 0.4,3.4 2.5,5.6 4.7,7.6 9.7,9 20.9,15.3 34,17.6 4.3,0.7 8.6,1.1 13.7,-0.4 -2.3,-2.9 -4,-5.6 -6.1,-7.7 -6.7,-7.2 -15.1,-11.9 -24.3,-15.3 -5.2,-1.8 -10.4,-3.2 -16,-3.4 -2.1,-0.1 -4.4,-0.2 -6,1.6 z"
         id="path72"
         style="fill:#ffffff" />
      <path
         class="st1"
         d="m 623.6,734.3 c -2.4,0 -4.6,-0.3 -6.7,-0.6 -12.7,-2.3 -23.9,-8.1 -34.5,-17.9 -2.4,-2.2 -4.6,-4.5 -5,-8.1 v -0.4 l 0.3,-0.3 c 1.8,-2 4.2,-1.9 6.1,-1.9 h 0.5 c 6.1,0.2 11.7,1.9 16.3,3.5 10.6,3.9 18.6,9 24.7,15.5 1.4,1.3 2.5,2.9 3.7,4.6 0.8,1 1.5,2.1 2.4,3.2 l 0.9,1.1 -1.3,0.4 c -2.6,0.6 -5,0.9 -7.4,0.9 z m -44.3,-26.4 c 0.4,2.8 2.2,4.6 4.3,6.6 10.3,9.5 21.3,15.2 33.6,17.4 4.1,0.7 7.8,1 12,0 -0.6,-0.7 -1.1,-1.5 -1.6,-2.2 -1.2,-1.6 -2.3,-3.1 -3.6,-4.4 -5.9,-6.3 -13.7,-11.3 -24,-15.1 -4.5,-1.6 -9.9,-3.2 -15.7,-3.4 h -0.5 c -1.6,0 -3.3,0 -4.5,1.1 z"
         id="path73"
         style="fill:#ffffff" />
    </g>
    <g
       id="sc-logo-chevron-pair-17">
      <path
         class="st1"
         d="m 602.3,698.9 c 0.9,3.1 1.3,4.1 4.5,6.3 4.5,3.1 9.2,5.8 14.2,8.1 8.3,3.8 17.1,5.6 26.3,5.2 3.1,-0.2 6.1,-0.5 9.5,-2 -2,-2.2 -3.4,-4.1 -5.4,-5.6 -12.2,-10.4 -26.6,-14.4 -42.3,-14.2 -2.3,-0.1 -5,0.1 -6.8,2.2 z"
         id="path74"
         style="fill:#ffffff" />
      <path
         class="st1"
         d="m 645.1,719.5 c -8.4,0 -16.6,-1.8 -24.4,-5.3 -5,-2.3 -9.6,-5 -14.4,-8.2 -3.4,-2.3 -3.9,-3.5 -4.9,-6.8 l -0.1,-0.5 0.3,-0.4 c 2.2,-2.6 5.4,-2.7 7.6,-2.5 17.2,-0.2 31.2,4.5 42.8,14.4 1.5,1.1 2.7,2.5 4,3.9 0.5,0.6 1,1.1 1.5,1.7 l 0.9,0.9 -1.2,0.5 c -3.4,1.4 -6.4,1.8 -9.8,2.1 -0.8,0.2 -1.6,0.2 -2.3,0.2 z m -41.8,-20.3 c 0.8,2.5 1.1,3.4 4,5.3 4.6,3.2 9.2,5.8 14.1,8 8.2,3.8 16.9,5.5 25.9,5.1 2.9,-0.2 5.4,-0.5 8,-1.4 -0.2,-0.3 -0.5,-0.5 -0.7,-0.8 -1.3,-1.5 -2.4,-2.7 -3.7,-3.7 -11.1,-9.5 -24.4,-14.1 -40.8,-14.1 h -1 c -2.7,-0.1 -4.5,0.3 -5.8,1.6 z m -236.1,17.6 c 1.8,0.5 3.1,0.9 4.3,1.1 17.8,2.5 33.3,-3.1 47.2,-13.9 0.7,-0.5 1.4,-1.4 2,-2.3 1.6,-2.3 1.3,-3.6 -1.6,-4.5 -0.5,-0.2 -1.3,-0.4 -1.8,-0.4 -4,0 -8.1,-0.2 -12.1,0.2 -11,1.3 -21.1,4.9 -29.9,11.3 -3.1,2.5 -5.8,5 -8.1,8.5 z"
         id="path75"
         style="fill:#ffffff" />
      <path
         class="st1"
         d="m 380,719.3 c -2.8,0 -5.7,-0.2 -8.6,-0.6 -1.3,-0.2 -2.7,-0.6 -4.5,-1.1 l -1.2,-0.4 0.7,-1 c 2.5,-3.7 5.5,-6.3 8.3,-8.6 8.6,-6.3 18.8,-10.2 30.4,-11.5 3,-0.3 6.2,-0.2 9.2,-0.2 h 3 c 0.8,0 1.7,0.3 2.1,0.4 1.1,0.3 2.6,1 3.1,2.3 0.4,1.3 -0.4,2.7 -1,3.6 -0.6,1 -1.4,2 -2.2,2.5 -12.7,9.8 -25.6,14.6 -39.3,14.6 z m -11.4,-3.1 c 1.1,0.3 2.1,0.6 3,0.7 16.5,2.3 31.7,-2.1 46.5,-13.7 0.6,-0.4 1.2,-1.2 1.8,-2.1 0.8,-1.2 0.9,-1.8 0.8,-2 -0.1,-0.3 -0.5,-0.7 -1.9,-1.1 -0.6,-0.2 -1.2,-0.3 -1.5,-0.3 h -3 c -3,0 -6.1,-0.1 -9,0.2 -11.2,1.3 -21.1,5 -29.4,11.2 -2.5,1.9 -5,4.1 -7.3,7.1 z"
         id="path76"
         style="fill:#ffffff" />
    </g>
    <g
       id="sc-logo-chevron-pair-16">
      <path
         class="st1"
         d="m 679.4,697.5 c -2.5,-2 -4.7,-3.8 -7,-5.2 -11.2,-6.8 -23.4,-8.8 -36.2,-8.1 -2.7,0.2 -5.6,0.5 -8.3,1.3 -1.8,0.4 -3.8,0.9 -4.5,2.9 6.3,11.6 41.6,17.7 56,9.1 z"
         id="path77"
         style="fill:#ffffff" />
      <path
         class="st1"
         d="m 660.5,702.4 c -6.8,0 -13.7,-1 -19.5,-2.6 -9.4,-2.6 -16,-6.5 -18.4,-11.1 l -0.2,-0.4 0.1,-0.4 c 1,-2.6 3.7,-3.2 5.2,-3.5 2.4,-0.6 5.1,-1.1 8.4,-1.3 14.4,-0.8 26.4,1.9 36.7,8.2 2,1.2 3.9,2.7 5.8,4.3 l 2.3,1.8 -1.1,0.7 c -4.9,3.2 -12,4.3 -19.3,4.3 z m -36.1,-14.2 c 2.4,3.9 8.6,7.5 17.1,9.9 11.4,3.1 27.2,3.8 36.2,-0.8 l -0.2,-0.2 c -2,-1.6 -3.8,-3 -5.7,-4.1 -10,-6.2 -21.7,-8.8 -35.7,-8 -3.1,0.2 -5.8,0.6 -8.1,1.2 -1.7,0.5 -3,0.9 -3.6,2 z m -223.6,-0.3 c -1.4,-1.8 -3.4,-2.5 -5.4,-2.9 -6.3,-1.4 -12.8,-1.4 -19.3,-0.7 -9,0.9 -17.5,3.4 -25,8.3 -2.2,1.4 -4.3,2.9 -6.1,5.6 2.2,0.9 4,1.6 5.9,2.2 6.1,1.8 12.2,2 18.5,1.3 8.6,-0.9 16.9,-3.2 24.7,-7.4 2.6,-1.5 5.5,-2.9 6.7,-6.4 z"
         id="path78"
         style="fill:#ffffff" />
      <path
         class="st1"
         d="m 362.9,702.9 c -4.3,0 -8.3,-0.6 -12.2,-1.7 -2.1,-0.6 -4,-1.3 -6,-2.2 l -1,-0.4 0.6,-0.9 c 1.9,-2.8 4.2,-4.4 6.4,-5.8 7.3,-4.7 15.6,-7.5 25.4,-8.4 7.4,-0.8 13.8,-0.6 19.6,0.7 1.7,0.3 4.1,1 5.9,3.2 l 0.3,0.4 -0.2,0.5 c -1.3,3.5 -4.1,5.1 -6.6,6.5 l -0.5,0.3 c -7.5,4 -16,6.6 -25,7.5 -2.3,0.2 -4.6,0.3 -6.7,0.3 z m -16.5,-5.1 c 1.6,0.7 3.2,1.2 4.8,1.7 5.5,1.6 11.3,2 18.2,1.2 8.8,-0.9 17,-3.4 24.3,-7.3 l 0.5,-0.3 c 2.2,-1.2 4.4,-2.5 5.6,-5.1 -1.1,-1.1 -2.5,-1.8 -4.5,-2.2 -5.6,-1.3 -11.8,-1.5 -19,-0.7 -9.5,1 -17.6,3.6 -24.6,8.1 -1.9,1.4 -3.7,2.6 -5.3,4.6 z"
         id="path79"
         style="fill:#ffffff" />
    </g>
    <g
       id="sc-logo-chevron-pair-15">
      <path
         class="st1"
         d="m 643.7,674.6 c 1.4,2.5 3.6,3.8 5.8,4.5 5,1.4 10.3,3.1 15.5,3.8 9.5,1.4 19.1,0.9 28.1,-2.7 2.3,-0.9 4.3,-2.2 7.2,-3.6 -2.3,-1.4 -3.8,-2.5 -5.4,-3.4 -6.3,-3.4 -13,-4.9 -20,-5.4 -8.3,-0.7 -16.6,0 -24.5,2.5 -2.5,0.7 -5,1.6 -6.7,4.3 z"
         id="path80"
         style="fill:#ffffff" />
      <path
         class="st1"
         d="m 674.5,684.5 c -3.1,0 -6.3,-0.2 -9.6,-0.7 -4.6,-0.6 -9.3,-2 -13.7,-3.3 l -1.9,-0.5 c -2.9,-1 -5,-2.6 -6.3,-4.9 l -0.3,-0.5 0.3,-0.5 c 1.8,-3 4.5,-4 7.2,-4.7 7.7,-2.5 16.1,-3.3 24.8,-2.6 8.1,0.6 14.6,2.4 20.3,5.5 0.9,0.5 1.8,1.1 2.8,1.8 0.8,0.5 1.6,1.1 2.6,1.7 l 1.4,0.8 -1.4,0.7 c -1,0.5 -1.9,1 -2.8,1.4 -1.6,0.9 -3,1.6 -4.5,2.2 -5.8,2.5 -12.2,3.6 -18.9,3.6 z m -29.7,-9.9 c 1.1,1.7 2.7,2.9 5,3.6 l 1.8,0.5 c 4.4,1.3 9,2.6 13.5,3.2 10.1,1.5 19.4,0.6 27.6,-2.6 1.5,-0.6 2.8,-1.3 4.3,-2.1 0.4,-0.2 0.9,-0.5 1.4,-0.7 -0.5,-0.3 -0.9,-0.6 -1.3,-0.9 -1,-0.6 -1.8,-1.2 -2.7,-1.7 -5.5,-3 -11.8,-4.7 -19.6,-5.3 -8.5,-0.7 -16.6,0.1 -24.1,2.5 -2.3,0.7 -4.4,1.5 -5.9,3.5 z M 324,676.8 c 2.9,1.4 5,2.7 7.4,3.6 9,3.6 18.4,4 27.7,2.7 5.4,-0.7 10.6,-2.5 15.8,-4 2.3,-0.7 4.3,-2 5.6,-4.5 -2,-2.9 -5,-3.8 -8.1,-4.7 -10.6,-2.9 -21.2,-3.2 -32,-0.7 -5.8,1.1 -11.2,3.3 -16.4,7.6 z"
         id="path81"
         style="fill:#ffffff" />
      <path
         class="st1"
         d="m 349.7,684.6 c -6.8,0 -13,-1.1 -18.7,-3.4 -1.7,-0.6 -3.2,-1.5 -5,-2.4 -0.8,-0.4 -1.5,-0.8 -2.4,-1.2 l -1.2,-0.6 1.1,-0.9 c 4.9,-4.1 10.2,-6.5 16.8,-7.8 10.7,-2.5 21.4,-2.3 32.5,0.7 3.2,0.9 6.4,1.9 8.6,5 l 0.3,0.4 -0.2,0.5 c -1.2,2.5 -3.2,4.1 -6.1,5 -1.3,0.4 -2.5,0.7 -3.8,1.1 -4,1.2 -8,2.4 -12.2,2.9 -3.5,0.5 -6.6,0.7 -9.7,0.7 z m -24.1,-8 1.2,0.6 c 1.8,0.9 3.3,1.7 4.9,2.3 8,3.2 16.9,4.1 27.3,2.6 4,-0.5 8.1,-1.7 11.9,-2.9 1.3,-0.4 2.5,-0.7 3.8,-1.1 2.2,-0.7 3.7,-1.8 4.8,-3.6 -1.8,-2.3 -4.5,-3.1 -7.3,-3.9 -10.8,-2.9 -21.1,-3.2 -31.6,-0.7 -5.8,1.3 -10.6,3.4 -15,6.7 z"
         id="path82"
         style="fill:#ffffff" />
    </g>
    <g
       id="sc-logo-chevron-pair-14">
      <path
         class="st1"
         d="m 663,659.5 c 2,0.9 3.4,2.2 5.2,2.5 3.2,0.9 6.5,1.6 9.7,1.8 11.5,1.1 22.9,-0.4 33.3,-5.8 2.5,-1.3 4.9,-3.1 8.1,-5.2 -3.2,-1.3 -5.4,-2.5 -7.7,-3.2 -9.7,-3.1 -19.6,-2.7 -29.3,-0.4 -4.5,1.1 -9,2.7 -13.3,4.5 -2.6,1.1 -4.7,2.4 -6,5.8 z"
         id="path83"
         style="fill:#ffffff" />
      <path
         class="st1"
         d="m 684.8,665 c -2.3,0 -4.6,-0.1 -7,-0.3 -2.8,-0.2 -5.9,-0.7 -9.9,-1.8 -1.2,-0.2 -2.3,-0.9 -3.4,-1.5 -0.6,-0.4 -1.3,-0.7 -2,-1.1 l -0.8,-0.3 0.3,-0.8 c 1.4,-3.9 4,-5.2 6.4,-6.3 5,-2.1 9.4,-3.6 13.5,-4.6 10.9,-2.6 20.7,-2.5 29.8,0.4 1.4,0.4 2.6,1 4.1,1.7 1.1,0.5 2.3,1.1 3.7,1.6 l 1.6,0.6 -1.4,1 c -0.9,0.6 -1.7,1.2 -2.5,1.7 -2,1.4 -3.8,2.6 -5.7,3.6 -7.8,4.1 -16.8,6.1 -26.7,6.1 z m -20.6,-5.9 c 0.5,0.3 0.9,0.5 1.4,0.8 1,0.6 1.9,1.1 2.9,1.3 3.9,1.1 6.9,1.6 9.6,1.8 12.3,1.2 23.4,-0.8 32.8,-5.7 1.8,-0.9 3.5,-2.1 5.5,-3.4 0.4,-0.3 0.8,-0.5 1.2,-0.8 -0.8,-0.3 -1.6,-0.7 -2.2,-1 -1.4,-0.6 -2.6,-1.2 -3.9,-1.6 -8.8,-2.8 -18.3,-2.9 -28.9,-0.3 -4,0.9 -8.3,2.4 -13.2,4.5 -2.2,0.8 -4,1.7 -5.2,4.4 z M 305.6,653 c 3.4,3.6 7.6,5.8 11.9,7.2 11.9,4.3 23.9,5 36.4,2.3 1.6,-0.4 3.2,-0.9 4.7,-1.6 2.9,-1.4 3.1,-2.9 0.5,-4.9 -1.3,-1.1 -2.7,-2 -4.1,-2.7 -11.7,-5.2 -23.9,-7.2 -36.7,-5.2 -4.6,1.1 -8.7,2.2 -12.7,4.9 z"
         id="path84"
         style="fill:#ffffff" />
      <path
         class="st1"
         d="m 339.4,665.1 c -7.5,0 -14.9,-1.3 -22.2,-4 -5.1,-1.7 -9.1,-4.1 -12.2,-7.4 l -0.7,-0.8 0.9,-0.6 c 4,-2.7 8,-3.8 12.9,-5 12.6,-2 25.1,-0.2 37.3,5.3 1.7,0.8 3.1,1.8 4.4,2.8 0.9,0.7 2.2,1.9 2.1,3.4 -0.1,1.5 -1.7,2.4 -2.8,3 -1.4,0.7 -3.1,1.3 -4.9,1.7 -5.1,1 -10,1.6 -14.8,1.6 z M 307,653.2 c 2.8,2.7 6.3,4.7 10.7,6.2 11.7,4.3 23.5,5 35.9,2.3 1.6,-0.4 3.2,-0.9 4.5,-1.5 1.6,-0.8 1.8,-1.3 1.8,-1.5 0,-0.2 -0.1,-0.8 -1.4,-1.8 -1.1,-1 -2.5,-1.8 -4,-2.6 -11.9,-5.3 -24,-7 -36.2,-5.1 -4.2,0.9 -7.8,1.8 -11.3,4 z"
         id="path85"
         style="fill:#ffffff" />
    </g>
    <g
       id="sc-logo-chevron-pair-13">
      <path
         class="st1"
         d="m 290.8,627.8 c 2.2,2 3.8,3.8 5.6,5 12.6,9.2 26.8,11.9 42,10.6 2.2,-0.2 4.5,-0.5 5.9,-2.7 -5,-11.8 -38,-20.1 -53.5,-12.9 z"
         id="path86"
         style="fill:#ffffff" />
      <path
         class="st1"
         d="m 331.5,644.7 c -13.7,0 -25.4,-3.7 -35.6,-11.1 -1.3,-0.9 -2.4,-2 -3.7,-3.3 -0.6,-0.6 -1.2,-1.2 -1.9,-1.8 l -1,-0.9 1.2,-0.6 c 10.3,-4.8 27.5,-2.8 39.2,1.7 8.1,3.1 13.6,7.3 15.5,11.7 l 0.2,0.4 -0.3,0.4 c -1.7,2.5 -4.3,2.9 -6.6,3.1 -2.4,0.3 -4.7,0.4 -7,0.4 z m -39,-16.6 c 0.3,0.3 0.6,0.6 1,0.9 1.3,1.2 2.4,2.3 3.5,3.1 11.5,8.4 25.1,11.8 41.4,10.5 1.8,-0.2 3.7,-0.4 5,-1.9 -1.9,-3.7 -7,-7.5 -14.3,-10.3 -11,-4.2 -26.7,-6.2 -36.6,-2.3 z m 440.9,-0.7 c -2.2,-0.7 -3.2,-1.1 -4.5,-1.4 -5.6,-1.4 -11.3,-1.6 -16.9,-0.9 -9.5,1.3 -18.4,4.3 -26.3,9.4 -1.8,1.1 -3.4,2.7 -4.9,4.1 -1.4,1.6 -1.1,2.9 0.9,3.6 2.2,0.7 4.7,1.4 7,1.4 5,0 10.3,-0.2 15.1,-0.9 9.7,-1.6 18.9,-5.2 26.5,-11.9 0.8,-0.8 1.7,-1.9 3.1,-3.4 z"
         id="path87"
         style="fill:#ffffff" />
      <path
         class="st1"
         d="m 688.7,644.5 c -2.5,0 -5.2,-0.8 -7.3,-1.5 -1.3,-0.5 -2.1,-1.2 -2.3,-2.1 -0.2,-0.9 0.1,-1.9 1,-2.9 1.5,-1.5 3.2,-3.2 5.1,-4.3 7.8,-5 16.8,-8.2 26.6,-9.5 6.1,-0.8 11.9,-0.5 17.3,0.9 1.3,0.4 2.4,0.7 4.5,1.4 l 1.4,0.5 -1,1 c -1.4,1.4 -2.3,2.4 -3,3.3 l -0.1,0.1 c -7.1,6.2 -16.1,10.3 -26.9,12.1 -4.2,0.8 -9,1 -15.3,1 z m 29.6,-18.9 c -2,0 -4.1,0.1 -6.2,0.4 -9.6,1.3 -18.3,4.4 -25.9,9.2 -1.7,1 -3.3,2.6 -4.7,4 -0.4,0.5 -0.7,1 -0.6,1.3 0.1,0.3 0.5,0.6 1.2,0.8 1.9,0.6 4.5,1.4 6.7,1.4 6.1,0 10.9,-0.3 15,-0.9 10.4,-1.7 19.1,-5.6 25.9,-11.6 0.6,-0.7 1.2,-1.5 2.1,-2.4 -1.3,-0.4 -2.2,-0.7 -3.1,-1 -3.3,-0.8 -6.8,-1.2 -10.4,-1.2 z"
         id="path88"
         style="fill:#ffffff" />
    </g>
    <g
       id="sc-logo-chevron-pair-12">
      <path
         class="st1"
         d="m 330.1,620.8 c -0.7,-3.4 -3.1,-5.4 -5.4,-7.4 -9.2,-7.4 -19.6,-12.2 -31.3,-13.7 -4.5,-0.5 -9,-0.7 -13.9,0.9 1.8,3.1 3.8,5.4 6.1,7.6 10.8,9.2 23.4,13.7 37.3,14.6 2.3,0 4.8,0 7.2,-2 z"
         id="path89"
         style="fill:#ffffff" />
      <path
         class="st1"
         d="m 322.9,623.7 c -14.7,-1 -27.4,-5.9 -37.9,-14.8 -2.6,-2.4 -4.6,-4.9 -6.3,-7.8 l -0.6,-1 1.1,-0.4 c 5.1,-1.7 9.9,-1.5 14.3,-0.9 11.4,1.4 22.1,6.1 31.8,13.9 2.4,2.1 4.9,4.2 5.7,7.9 l 0.1,0.5 -0.4,0.3 c -2.6,2.3 -5.4,2.3 -7.8,2.3 z m -42,-22.6 c 1.5,2.4 3.2,4.4 5.4,6.4 10.1,8.6 22.5,13.4 36.7,14.3 2,0 4.2,0 6.1,-1.4 -0.8,-2.8 -2.8,-4.5 -5,-6.3 -9.4,-7.6 -19.8,-12.1 -30.9,-13.5 -3.8,-0.4 -7.9,-0.7 -12.3,0.5 z m 463.7,0.1 c -0.2,-0.4 -0.4,-0.7 -0.4,-1.1 -2,-0.2 -4,-0.7 -5.9,-0.7 -15.3,-0.4 -28.3,5.4 -39.8,14.9 -1.4,1.3 -2.7,2.7 -3.6,4.3 -1.1,1.8 -0.5,2.9 1.4,3.4 1.6,0.4 3.6,0.7 5.2,0.5 13.9,-0.9 26.3,-5.2 36.9,-14.6 2.2,-1.7 4.2,-4.4 6.2,-6.7 z"
         id="path90"
         style="fill:#ffffff" />
      <path
         class="st1"
         d="m 700.6,623.5 c -1.5,0 -3.2,-0.3 -4.5,-0.6 -1.4,-0.4 -2.2,-1 -2.5,-1.8 -0.3,-0.8 -0.2,-1.8 0.5,-2.9 0.9,-1.6 2.2,-3.1 3.8,-4.5 12.7,-10.6 25.9,-15.5 40.4,-15.2 1.2,0 2.5,0.2 3.7,0.4 0.8,0.1 1.6,0.3 2.3,0.3 l 0.8,0.1 v 0.8 c 0,0.1 0.1,0.4 0.3,0.7 l 0.3,0.5 -0.4,0.5 c -0.5,0.6 -1,1.2 -1.4,1.7 -1.5,1.9 -3.1,3.8 -4.8,5.2 -10.2,9 -22.4,13.8 -37.4,14.8 z m 36.3,-23.3 c -13.5,0 -25.9,4.8 -37.9,14.8 -1.5,1.3 -2.6,2.6 -3.4,4.1 -0.4,0.6 -0.5,1.1 -0.4,1.4 0.1,0.3 0.6,0.6 1.3,0.7 1.3,0.3 3.4,0.7 4.9,0.5 14.6,-1 26.5,-5.6 36.4,-14.4 1.6,-1.3 3.1,-3.2 4.6,-5 0.4,-0.4 0.7,-0.9 1.1,-1.3 v -0.1 l -1.8,-0.3 c -1.2,-0.2 -2.3,-0.4 -3.4,-0.4 z"
         id="path91"
         style="fill:#ffffff" />
    </g>
    <g
       id="sc-logo-chevron-pair-11">
      <path
         class="st1"
         d="m 271.2,571.4 c 1.4,4.1 4,7.2 6.7,10.1 8.3,8.8 18.5,14 30.1,16.9 2,0.5 4,0.7 5.9,0.7 1.3,0 2.5,-0.5 3.8,-0.7 -0.4,-3.6 -0.9,-4.7 -3.4,-7.4 -8.5,-9.2 -18.5,-15.8 -30.8,-18.9 -3.8,-0.8 -7.8,-1.4 -12.3,-0.7 z"
         id="path92"
         style="fill:#ffffff" />
      <path
         class="st1"
         d="m 313.9,600.1 c -2.3,0 -4.3,-0.2 -6.2,-0.8 -12.6,-3.2 -22.6,-8.8 -30.5,-17.2 -3.1,-3.3 -5.4,-6.3 -6.9,-10.4 l -0.4,-1 1.1,-0.2 c 5,-0.8 9.4,0 12.6,0.7 11.7,2.9 22.2,9.4 31.2,19.2 2.7,2.9 3.3,4.1 3.7,7.9 l 0.1,0.9 -0.9,0.1 c -0.5,0.1 -0.9,0.2 -1.4,0.3 -0.7,0.3 -1.5,0.5 -2.4,0.5 z m -41.4,-27.9 c 1.3,3.3 3.4,5.9 6.1,8.7 7.6,8.1 17.3,13.6 29.6,16.7 1.7,0.5 3.6,0.7 5.7,0.7 0.6,0 1.3,-0.2 2,-0.4 0.2,-0.1 0.5,-0.1 0.7,-0.2 -0.3,-2.7 -0.9,-3.7 -3.1,-6 -8.9,-9.7 -18.8,-15.8 -30.3,-18.6 -2.8,-0.7 -6.5,-1.4 -10.7,-0.9 z m 433,25.9 c 3.4,2 6.5,1.4 9.2,0.9 8.1,-1.6 15.5,-5 22.3,-9.5 5.8,-3.8 10.8,-8.5 14.4,-14.6 0.5,-1.1 1.1,-2.2 1.6,-3.6 -1.8,-0.2 -2.9,-0.2 -4,-0.2 -1.4,0 -3.1,0.2 -4.5,0.4 -14.2,2.3 -25.6,9.5 -34.9,20.2 -1.8,1.7 -2.7,3.9 -4.1,6.4 z"
         id="path93"
         style="fill:#ffffff" />
      <path
         class="st1"
         d="m 710.7,600.4 c -1.7,0 -3.7,-0.4 -5.7,-1.5 l -0.8,-0.4 0.4,-0.8 c 0.3,-0.6 0.7,-1.2 1,-1.7 1,-1.8 1.9,-3.5 3.3,-4.9 10.1,-11.5 21.7,-18.2 35.4,-20.4 1.6,-0.2 3.2,-0.4 4.6,-0.4 1.1,0 2.2,0 4.1,0.2 l 1.2,0.1 -0.4,1.1 c -0.6,1.5 -1.1,2.6 -1.7,3.7 -3.4,5.8 -8.2,10.7 -14.7,14.9 -7.6,5 -15,8.1 -22.6,9.7 -1.1,0.1 -2.5,0.4 -4.1,0.4 z m -4,-2.7 c 2.9,1.4 5.6,0.8 7.8,0.4 7.4,-1.5 14.6,-4.6 22,-9.4 6.3,-4.1 10.9,-8.8 14.1,-14.3 0.4,-0.7 0.7,-1.5 1.1,-2.4 -1.1,-0.1 -1.9,-0.1 -2.7,-0.1 -1.4,0 -2.9,0.2 -4.4,0.4 -13.3,2.2 -24.5,8.7 -34.4,19.9 -1.3,1.3 -2.1,2.8 -3.1,4.6 0,0.3 -0.2,0.6 -0.4,0.9 z"
         id="path94"
         style="fill:#ffffff" />
    </g>
    <g
       id="sc-logo-chevron-pair-10">
      <path
         class="st1"
         d="m 266.9,542.5 c 0.7,4.1 2.2,6.8 4,9.5 7.4,11.3 18,18.7 30.6,23.4 1.8,0.7 3.8,0.7 5.6,0.9 1.6,0 2.3,-0.9 2,-2.5 -0.5,-1.6 -1.1,-3.4 -2,-4.9 -7.9,-11.9 -18.4,-20.7 -32,-24.8 -2.6,-0.9 -5.1,-1.1 -8.2,-1.6 z"
         id="path95"
         style="fill:#ffffff" />
      <path
         class="st1"
         d="m 307,577.2 c -0.5,0 -0.8,-0.1 -1.2,-0.1 -1.5,-0.1 -3.1,-0.2 -4.7,-0.9 -13.8,-5.1 -24,-12.9 -31,-23.8 -1.9,-2.9 -3.4,-5.7 -4.1,-9.9 l -0.2,-1.3 1.3,0.2 c 0.8,0.1 1.7,0.3 2.4,0.4 2,0.3 3.9,0.6 5.8,1.3 13,3.9 24,12.4 32.5,25.2 0.9,1.4 1.4,3.1 1.9,4.5 l 0.2,0.5 c 0.3,1.4 0,2.3 -0.4,2.7 -0.4,0.7 -1.1,1.2 -2.5,1.2 z m -39,-33.6 c 0.7,3.2 2,5.5 3.6,7.9 6.8,10.5 16.7,18.1 30.2,23.1 1.3,0.5 2.8,0.6 4.2,0.7 0.4,0 0.8,0.1 1.2,0.1 0.4,0 0.8,-0.1 0.9,-0.3 0.2,-0.2 0.2,-0.6 0.1,-1.1 l -0.2,-0.5 c -0.5,-1.4 -1,-2.9 -1.7,-4.1 -8.3,-12.4 -18.9,-20.6 -31.5,-24.5 -1.8,-0.6 -3.5,-0.9 -5.5,-1.2 -0.5,0 -0.9,-0.1 -1.3,-0.1 z m 489.3,-0.8 c -2.2,0.2 -3.8,0.2 -5.4,0.5 -11.3,2.3 -20.5,8.6 -28.3,17.1 -2.9,3.1 -5.2,6.7 -7.6,10.1 -1.1,1.4 -1.8,3.4 -0.9,5.4 3.1,1.3 5.8,0 8.5,-0.9 8.8,-3.2 16.6,-8.3 23,-15.1 3.6,-3.8 6.8,-7.9 8.8,-12.8 0.9,-1.2 1.2,-2.5 1.9,-4.3 z"
         id="path96"
         style="fill:#ffffff" />
      <path
         class="st1"
         d="m 717.9,577.4 c -1,0 -2,-0.2 -3,-0.6 l -0.3,-0.1 -0.1,-0.3 c -0.9,-2 -0.5,-4.3 1,-6.3 l 0.8,-1.2 c 2.1,-3.1 4.2,-6.2 6.8,-9 8.7,-9.5 18.1,-15.2 28.7,-17.4 1.2,-0.3 2.4,-0.3 3.8,-0.4 0.5,0 1.1,-0.1 1.7,-0.1 l 1.5,-0.1 -0.5,1.4 -0.6,1.5 c -0.4,1 -0.7,2 -1.2,2.9 -1.8,4.3 -4.6,8.4 -9,13 -6.5,6.9 -14.4,12 -23.4,15.3 -0.3,0.1 -0.7,0.2 -1,0.3 -1.7,0.5 -3.4,1.1 -5.2,1.1 z m -2,-2.2 c 2.2,0.8 4.3,0.1 6.5,-0.7 0.3,-0.1 0.7,-0.2 1,-0.3 8.7,-3.2 16.4,-8.2 22.7,-14.9 4.2,-4.4 7,-8.4 8.6,-12.5 l 0.1,-0.1 c 0.5,-0.8 0.8,-1.6 1.2,-2.7 0,-0.1 0.1,-0.1 0.1,-0.2 h -0.3 c -1.3,0.1 -2.4,0.2 -3.5,0.4 -10.3,2.1 -19.4,7.6 -27.8,16.8 -2.5,2.7 -4.6,5.8 -6.6,8.8 l -0.8,1.2 c -0.9,0.9 -1.8,2.5 -1.2,4.2 z"
         id="path97"
         style="fill:#ffffff" />
    </g>
    <g
       id="sc-logo-chevron-pair-9">
      <path
         class="st1"
         d="m 266.4,514.2 c -0.2,1.3 -0.4,1.6 -0.2,2 0.4,1.4 0.5,2.7 1.1,4 5.4,14.6 15.8,24.5 29.3,31.5 0.9,0.5 2,0.7 2.9,0.9 1.1,0.2 2.2,0 3.2,0 0.5,-3.1 0.5,-4.3 -1.1,-7.6 -5.8,-11.5 -13.9,-20.9 -25.4,-27.2 -3,-1.4 -6.4,-2.3 -9.8,-3.6 z"
         id="path98"
         style="fill:#ffffff" />
      <path
         class="st1"
         d="m 300.6,553.5 c -0.4,0 -0.8,0 -1.2,-0.1 h -0.2 c -0.9,-0.2 -2,-0.4 -2.9,-1 -14.9,-7.7 -24.6,-18.2 -29.7,-32 -0.4,-0.9 -0.6,-1.9 -0.8,-2.9 -0.1,-0.3 -0.2,-0.7 -0.2,-1.1 -0.2,-0.5 -0.1,-0.9 0,-1.5 0,-0.2 0.1,-0.5 0.2,-0.9 l 0.2,-1.1 1,0.4 3.6,1.2 c 2.2,0.7 4.4,1.4 6.4,2.4 11.1,6.1 19.6,15.1 25.8,27.6 1.8,3.5 1.7,5 1.2,8.1 l -0.1,0.7 h -1.8 c -0.8,0.2 -1.2,0.2 -1.5,0.2 z m -33.5,-38.1 c 0,0.2 -0.1,0.4 -0.1,0.4 v 0.1 l 0.3,1.2 c 0.2,1 0.4,1.8 0.8,2.6 5,13.4 14.4,23.5 28.9,31.1 0.7,0.4 1.6,0.6 2.4,0.8 h 0.2 c 0.6,0.1 1.2,0.1 1.9,0 h 0.4 c 0.4,-2.4 0.2,-3.6 -1.1,-6.3 -6.1,-12.2 -14.3,-20.9 -25,-26.8 -1.9,-0.9 -4,-1.6 -6.1,-2.3 -0.9,-0.2 -1.8,-0.5 -2.6,-0.8 z m 490.8,-0.8 c -1.4,0.4 -2.3,0.4 -3.2,0.7 -16,5.6 -26.3,17.1 -32.9,32.4 -0.5,1.4 -0.4,3.1 -0.5,4.7 3.6,0.5 4.5,0.5 7.7,-1.1 11.5,-6.1 20.7,-14.8 26.5,-26.6 1.1,-3.1 2.6,-6.2 2.4,-10.1 z"
         id="path99"
         style="fill:#ffffff" />
      <path
         class="st1"
         d="m 724.3,553.6 c -0.9,0 -1.9,-0.1 -3.3,-0.3 l -0.9,-0.1 0.1,-0.9 c 0.1,-0.5 0.1,-1 0.1,-1.5 0,-1.1 0.1,-2.3 0.5,-3.4 7.4,-16.9 18.3,-27.7 33.5,-32.9 0.6,-0.2 1.1,-0.3 1.8,-0.4 0.4,-0.1 0.9,-0.2 1.5,-0.3 l 1.1,-0.3 0.1,1.1 c 0.2,3.8 -1.1,6.8 -2.3,9.7 l -0.3,0.8 c -5.6,11.5 -14.6,20.6 -26.9,27.1 -2.2,1 -3.4,1.4 -5,1.4 z m -2.2,-2 c 2.8,0.4 3.6,0.3 6.4,-1.1 11.9,-6.3 20.7,-15.2 26.1,-26.2 l 0.3,-0.7 c 1,-2.4 2,-4.9 2.1,-7.9 -0.2,0 -0.4,0.1 -0.5,0.1 -0.6,0.1 -1,0.2 -1.5,0.3 -14.7,5.1 -25.3,15.6 -32.5,31.9 -0.3,0.8 -0.3,1.7 -0.4,2.7 z"
         id="path100"
         style="fill:#ffffff" />
    </g>
    <g
       id="sc-logo-chevron-pair-8">
      <path
         class="st1"
         d="m 299.7,527.2 c -0.2,-2.2 0,-4.3 -0.5,-6.3 -0.7,-2.7 -1.6,-5.4 -2.9,-7.9 -4.9,-10.3 -11.5,-19.1 -21.4,-25 -2,-1.1 -4,-2 -6.3,-3.1 0,2 -0.2,3.4 0,4.7 3.1,15.7 12.1,27.4 25,36.4 1.4,1 3,2.1 6.1,1.2 z"
         id="path101"
         style="fill:#ffffff" />
      <path
         class="st1"
         d="m 297.5,528.4 c -2,0 -3.3,-0.9 -4.5,-1.8 -14.1,-9.8 -22.4,-21.9 -25.4,-36.9 -0.1,-0.9 -0.1,-1.9 -0.1,-2.9 v -3.3 l 1.8,0.8 c 2.1,1 4,1.8 5.9,2.9 9.2,5.5 16.3,13.8 21.8,25.4 1.1,2.3 2.1,4.9 2.9,8.1 0.4,1.4 0.4,2.9 0.5,4.4 0,0.7 0,1.4 0.1,2.1 l 0.1,0.7 -0.7,0.2 c -0.9,0.2 -1.7,0.3 -2.4,0.3 z m -28.1,-42.2 v 0.6 c 0,1 -0.1,1.8 0,2.6 2.8,14.5 10.9,26.2 24.6,35.8 1.3,1 2.5,1.7 4.7,1.3 0,-0.5 0,-1 -0.1,-1.4 0,-1.4 -0.1,-2.7 -0.4,-3.9 -0.8,-3.1 -1.7,-5.6 -2.8,-7.8 -5.4,-11.3 -12.2,-19.4 -21.1,-24.7 -1.5,-0.9 -3.1,-1.6 -4.9,-2.5 z m 456.3,41.7 c 1.4,-0.5 3.2,-0.9 4.5,-1.8 13.1,-8.6 22,-20.2 25.4,-35.6 0.4,-1.6 0.2,-3.4 0.4,-5.8 -2.3,1.1 -4,1.6 -5.6,2.3 -4.9,2.5 -9,6.1 -12.6,10.3 -6.3,7.4 -11,15.5 -13.1,25 -0.5,2 -0.7,3.6 1,5.6 z"
         id="path102"
         style="fill:#ffffff" />
      <path
         class="st1"
         d="m 725.4,528.9 -0.4,-0.5 c -1.8,-2.2 -1.7,-4.1 -1.3,-6.3 2,-9 6.4,-17.3 13.3,-25.5 4.1,-4.7 8.3,-8.1 12.9,-10.5 0.7,-0.3 1.4,-0.6 2.2,-0.9 1,-0.4 2.1,-0.8 3.5,-1.5 l 1.4,-0.6 -0.1,1.5 c -0.1,0.9 -0.1,1.7 -0.1,2.5 0,1.3 0,2.3 -0.3,3.4 -3.3,15.2 -11.8,27 -25.8,36.2 -1,0.7 -2.2,1.1 -3.4,1.5 -0.4,0.1 -0.9,0.3 -1.3,0.4 z m 29.5,-42.8 c -0.8,0.3 -1.5,0.6 -2.2,0.9 -0.7,0.3 -1.4,0.5 -2,0.8 -4.4,2.3 -8.4,5.5 -12.3,10 -6.7,7.9 -11,16 -12.9,24.6 -0.3,1.7 -0.4,2.9 0.5,4.3 0.2,-0.1 0.5,-0.2 0.7,-0.2 1.1,-0.3 2.1,-0.7 2.9,-1.2 13.6,-8.9 21.8,-20.4 25,-35.1 0.2,-0.9 0.2,-1.9 0.2,-3.1 0.1,-0.3 0.1,-0.6 0.1,-1 z"
         id="path103"
         style="fill:#ffffff" />
    </g>
    <g
       id="sc-logo-chevron-pair-7">
      <path
         class="st1"
         d="m 273.4,456.4 c -0.2,2.2 -0.5,3.8 -0.4,5.4 1.3,15.1 8.1,27.4 18.9,37.6 1.4,1.4 3.6,2.2 5.6,3.4 2.2,-3.1 1.8,-6.1 1.3,-8.8 -2.2,-11.5 -7,-21.8 -15.1,-30.2 -2.9,-3.1 -6,-5.6 -10.3,-7.4 z"
         id="path104"
         style="fill:#ffffff" />
      <path
         class="st1"
         d="m 297.7,504.1 -0.7,-0.5 -2.1,-1.2 c -1.3,-0.7 -2.6,-1.3 -3.6,-2.4 -11.7,-11.1 -17.9,-23.6 -19.2,-38.2 -0.1,-1.2 0,-2.4 0.2,-3.7 0.1,-0.6 0.1,-1.2 0.2,-1.8 l 0.1,-1.2 1.1,0.5 c 3.9,1.6 7.1,3.9 10.6,7.6 7.9,8.3 13.1,18.6 15.4,30.7 0.6,3 0.9,6.3 -1.4,9.5 z m -23.6,-46.4 c 0,0.2 -0.1,0.4 -0.1,0.7 -0.1,1.2 -0.3,2.3 -0.2,3.3 1.2,14.2 7.3,26.3 18.6,37.1 0.8,0.8 2,1.4 3.2,2 0.5,0.3 1,0.5 1.5,0.8 1.5,-2.5 1.1,-5.1 0.7,-7.4 -2.2,-11.8 -7.2,-21.8 -14.9,-29.8 -2.9,-3.1 -5.6,-5.2 -8.8,-6.7 z m 476.4,-1.5 c -2.2,1.4 -4.1,2.3 -5.8,3.8 -11.5,9.5 -17.3,22.3 -19.6,36.9 -0.4,1.8 -0.2,3.8 1.3,5.2 12.2,-2.3 27,-29.9 24.1,-45.9 z"
         id="path105"
         style="fill:#ffffff" />
      <path
         class="st1"
         d="m 726.1,503.1 -0.3,-0.3 c -1.5,-1.5 -2,-3.6 -1.5,-6 2.6,-16.2 9.1,-28.5 19.9,-37.4 1.1,-1 2.3,-1.7 3.6,-2.4 0.7,-0.4 1.5,-0.9 2.2,-1.4 l 1.1,-0.8 0.2,1.4 c 2.9,16.4 -11.9,44.5 -24.8,47 z m 23.7,-45.4 c -0.4,0.2 -0.8,0.5 -1.1,0.7 -1.3,0.8 -2.4,1.4 -3.3,2.3 -10.5,8.7 -16.8,20.6 -19.3,36.4 -0.2,1.2 -0.3,2.8 0.7,4.1 11.4,-2.9 24.7,-28.2 23,-43.5 z"
         id="path106"
         style="fill:#ffffff" />
    </g>
    <g
       id="sc-logo-chevron-pair-6">
      <path
         class="st1"
         d="m 299.1,473.5 c 0.5,-1.8 1.3,-3.2 1.3,-4.9 0.4,-15.5 -4.3,-29.3 -15.3,-40.5 -1.1,-1.1 -2.3,-2 -3.8,-3.1 -0.4,1.1 -0.7,1.6 -0.9,2.3 -1.1,4.9 -0.9,9.5 0,14.4 1.8,9.9 5.8,18.9 12.1,26.8 1.4,2.3 3,4.3 6.6,5 z"
         id="path107"
         style="fill:#ffffff" />
      <path
         class="st1"
         d="m 299.7,474.5 -0.8,-0.2 c -4,-0.8 -5.8,-3 -7.2,-5.2 -6.2,-7.8 -10.3,-17 -12.2,-27.2 -1,-5.5 -1,-10.2 0,-14.8 0.1,-0.5 0.3,-0.8 0.5,-1.2 0.1,-0.3 0.3,-0.7 0.5,-1.2 l 0.4,-1.2 1.5,1.2 c 1.3,0.9 2.3,1.8 3.3,2.7 10.7,10.9 15.9,24.7 15.6,41.2 0,1.3 -0.4,2.5 -0.8,3.7 -0.2,0.4 -0.3,0.9 -0.5,1.4 z m -18,-48 c 0,0.1 -0.1,0.1 -0.1,0.2 -0.2,0.4 -0.3,0.6 -0.4,0.9 -1,4.3 -1,8.8 0,14 1.8,9.9 5.8,18.8 11.9,26.4 1.3,1.9 2.6,3.6 5.4,4.4 0.1,-0.2 0.2,-0.5 0.2,-0.7 0.4,-1.1 0.7,-2.1 0.7,-3.1 0.4,-15.9 -4.7,-29.4 -15,-39.9 -0.8,-0.7 -1.7,-1.4 -2.7,-2.2 z m 461.2,-1.4 c -1.4,1.1 -2.5,1.8 -3.4,2.7 -11.3,11 -15.7,24.8 -15.8,40.3 0,1.8 0.4,3.8 2,5.4 2.9,-0.4 4.5,-2.5 6.1,-4.5 6.5,-8.3 10.6,-17.6 12.1,-27.9 0.7,-5.2 0.8,-10.4 -1,-16 z"
         id="path108"
         style="fill:#ffffff" />
      <path
         class="st1"
         d="m 725.3,474.5 -0.3,-0.3 c -1.5,-1.5 -2.2,-3.5 -2.2,-6 0.2,-17.3 5.5,-30.7 16.1,-41 0.7,-0.7 1.6,-1.3 2.6,-2.1 0.3,-0.2 0.6,-0.5 1,-0.7 l 1,-0.8 0.4,1.2 c 2,6.1 1.6,11.7 0.9,16.4 -1.4,10.3 -5.6,19.8 -12.2,28.3 l -0.3,0.3 c -1.6,1.9 -3.4,4.1 -6.5,4.5 z m 17.1,-47.9 c -0.9,0.7 -1.7,1.2 -2.3,1.9 -10.3,10 -15.4,23 -15.6,39.7 0,1.9 0.5,3.3 1.4,4.4 2.1,-0.4 3.4,-2.1 4.8,-3.8 l 0.3,-0.3 c 6.5,-8.3 10.5,-17.5 11.9,-27.5 0.6,-4.2 1,-9.1 -0.5,-14.4 z"
         id="path109"
         style="fill:#ffffff" />
    </g>
    <g
       id="sc-logo-chevron-pair-5">
      <path
         class="st1"
         d="m 304.3,447.4 c 2.2,-1.6 2.5,-3.8 2.9,-6.1 0.9,-5 0.5,-10.1 0,-15.1 -1.1,-8.6 -3.8,-16.9 -9,-23.9 -1.3,-1.6 -2.7,-2.9 -4.1,-4.7 -0.5,1.4 -0.9,2.2 -1.3,3.1 -1.8,5.4 -2,11 -1.6,16.6 0.7,8.8 3.2,17.1 7.7,24.8 1.1,2.1 2.6,4.4 5.4,5.3 z"
         id="path110"
         style="fill:#ffffff" />
      <path
         class="st1"
         d="m 304.5,448.4 -0.4,-0.1 c -3.1,-1 -4.8,-3.5 -5.9,-5.9 -4.5,-7.7 -7.1,-16.1 -7.8,-25.2 -0.4,-6.9 0.1,-12.1 1.7,-16.9 0.2,-0.4 0.3,-0.7 0.4,-1.1 0.2,-0.5 0.5,-1.2 0.8,-2 l 0.6,-1.5 1,1.2 c 0.7,0.9 1.4,1.6 2.1,2.3 0.7,0.8 1.4,1.5 2.1,2.4 4.9,6.6 8,14.8 9.2,24.4 0.5,4.7 0.9,10 0,15.4 -0.3,2.2 -0.7,4.8 -3.2,6.7 z m -10.1,-49.2 c -0.1,0.3 -0.2,0.5 -0.3,0.7 -0.1,0.3 -0.3,0.6 -0.4,1 -1.5,4.5 -2,9.5 -1.6,16.2 0.7,8.8 3.3,17 7.6,24.5 1,2 2.2,4 4.4,4.8 1.6,-1.4 1.9,-3.2 2.2,-5.2 0.9,-5.1 0.5,-10.4 0,-14.9 -1.2,-9.3 -4.1,-17.2 -8.8,-23.5 -0.6,-0.8 -1.3,-1.5 -2,-2.2 -0.3,-0.5 -0.7,-0.9 -1.1,-1.4 z M 730,397.9 c -1.3,1.3 -2.5,2.5 -3.6,4 -4.9,6.3 -7.6,13.7 -9,21.6 -1.1,6.5 -1.4,13.1 -0.2,19.6 0.4,1.8 0.7,3.4 2.5,4.3 11.2,-5.6 17.7,-37.3 10.3,-49.5 z"
         id="path111"
         style="fill:#ffffff" />
      <path
         class="st1"
         d="m 719.7,448.4 -0.4,-0.2 c -2.2,-1.1 -2.6,-3.2 -3,-4.9 -1.1,-5.9 -1.1,-12.4 0.2,-20 1.6,-8.9 4.6,-16.1 9.2,-22 1.1,-1.5 2.4,-2.8 3.7,-4 l 0.8,-0.8 0.6,1 c 4.7,7.9 3.7,22.6 0.7,32.9 -2.6,9.1 -6.8,15.6 -11.3,17.9 z m 10.1,-49 c -1,1 -1.9,1.9 -2.7,3 -4.4,5.7 -7.3,12.6 -8.8,21.2 -1.2,7.3 -1.3,13.6 -0.2,19.3 0.3,1.7 0.6,2.8 1.7,3.5 4,-2.3 7.6,-8.3 10,-16.6 3.3,-11.6 3.3,-23.8 0,-30.4 z"
         id="path112"
         style="fill:#ffffff" />
    </g>
    <g
       id="sc-logo-chevron-pair-4">
      <path
         class="st1"
         d="m 312.8,423.3 c 2.9,-1.8 3.6,-4 4.1,-6.1 2.2,-8.3 2.5,-16.6 1.3,-24.8 -0.9,-6.1 -2.9,-11.9 -6.3,-16.9 -0.5,-0.7 -1.3,-1.4 -2.2,-2.3 -0.9,2 -1.8,3.2 -2.3,4.9 -5,14.2 -3.6,27.9 2.3,41.4 0.6,1.1 2,2.3 3.1,3.8 z"
         id="path113"
         style="fill:#ffffff" />
      <path
         class="st1"
         d="m 312.6,424.5 -0.5,-0.7 -1.2,-1.5 c -0.8,-0.9 -1.5,-1.8 -1.9,-2.7 -6.4,-14.6 -7.2,-28.4 -2.4,-42.1 0.3,-1 0.8,-1.9 1.3,-2.8 0.3,-0.6 0.7,-1.3 1.1,-2.1 l 0.5,-1.2 0.9,0.9 c 0.9,0.9 1.7,1.7 2.2,2.4 3.3,4.9 5.5,10.7 6.5,17.3 1.3,8.5 0.9,17 -1.3,25.2 -0.6,2.3 -1.4,4.7 -4.5,6.7 z M 310,374.6 c -0.2,0.4 -0.4,0.7 -0.5,1 -0.5,0.9 -0.9,1.7 -1.2,2.6 -4.7,13.2 -3.9,26.6 2.3,40.8 0.3,0.7 0.9,1.4 1.6,2.2 0.3,0.3 0.5,0.6 0.8,0.9 2,-1.5 2.6,-3.2 3.1,-5.1 2.1,-8 2.5,-16.2 1.2,-24.5 -0.9,-6.3 -3,-11.9 -6.2,-16.6 -0.2,-0.4 -0.6,-0.8 -1.1,-1.3 z m 400.7,48.3 c 2.2,-0.7 3.2,-2.5 4,-4.3 5.4,-13 6.8,-26.1 2.5,-39.8 -0.7,-2 -1.8,-3.8 -3.1,-6.3 -1.4,2 -2.5,3.2 -3.2,4.7 -7,13.5 -7.6,27.4 -3.4,41.8 0.7,1.4 1.4,3.2 3.2,3.9 z"
         id="path114"
         style="fill:#ffffff" />
      <path
         class="st1"
         d="m 710.7,423.9 -0.3,-0.1 c -1.9,-0.8 -2.8,-2.5 -3.5,-4 l -0.3,-0.6 c -4.5,-15.5 -3.3,-29.4 3.5,-42.4 0.6,-1.1 1.3,-2.1 2.2,-3.4 0.3,-0.4 0.7,-0.9 1.1,-1.4 l 0.9,-1.2 0.7,1.3 c 0.4,0.8 0.7,1.4 1.1,2.1 0.8,1.5 1.5,2.9 2,4.3 4.2,13.2 3.3,26.4 -2.5,40.4 -0.7,1.6 -1.8,3.9 -4.5,4.8 z m -2.4,-5.3 0.2,0.4 c 0.6,1.2 1.2,2.4 2.3,2.9 1.3,-0.6 2.3,-1.7 3.1,-3.7 5.7,-13.7 6.5,-26.5 2.5,-39.2 -0.5,-1.3 -1.1,-2.6 -1.9,-4 -0.1,-0.3 -0.3,-0.5 -0.4,-0.8 -0.1,0.1 -0.1,0.2 -0.2,0.3 -0.9,1.2 -1.6,2.1 -2.1,3.1 -6.7,12.6 -7.8,26 -3.5,41 z"
         id="path115"
         style="fill:#ffffff" />
    </g>
    <g
       id="sc-logo-chevron-pair-3">
      <path
         class="st1"
         d="m 672.9,325.9 c -0.7,2.2 -1.4,3.8 -1.8,5.6 -2.9,14.4 0.5,27.5 7.9,39.8 0.9,1.4 2.5,2.7 4,4 2.3,-2.5 2.7,-3.2 3.2,-6.3 1.4,-10.4 -0.2,-20.5 -4.3,-30.2 -2,-4.8 -4.7,-9 -9,-12.9 z"
         id="path116"
         style="fill:#ffffff" />
      <path
         class="st1"
         d="m 683.1,376.4 -1.4,-1.2 c -1.3,-1.1 -2.6,-2.2 -3.4,-3.6 -8.2,-13.5 -10.8,-26.7 -8,-40.4 0.3,-1.3 0.7,-2.5 1.2,-3.8 0.2,-0.6 0.4,-1.2 0.7,-1.9 l 0.4,-1.3 1,0.9 c 4.1,3.8 7,7.9 9.2,13.1 4.3,10.1 5.8,20.5 4.4,30.7 -0.6,3.3 -1,4.2 -3.5,6.8 z m -9.8,-48.9 c -0.1,0.2 -0.1,0.4 -0.2,0.6 -0.5,1.3 -0.9,2.4 -1.1,3.6 -2.6,13.2 -0.1,26 7.8,39.2 0.7,1.1 1.9,2.1 3.1,3.1 h 0.1 c 1.7,-1.9 2,-2.6 2.4,-5.2 1.4,-9.9 -0.1,-19.9 -4.3,-29.7 -1.9,-4.6 -4.4,-8.3 -7.8,-11.6 z m -332,47.7 c 1.4,-1.4 3.1,-2.7 4,-4.1 7.4,-12.2 10.6,-25.6 7.7,-39.8 -0.4,-1.6 -1.1,-3.2 -2,-5.6 -2,2.3 -3.8,4.1 -5,6.1 -7.4,11.2 -9.4,23.8 -8.1,36.9 0.3,2.2 0.7,4.5 3.4,6.5 z"
         id="path117"
         style="fill:#ffffff" />
      <path
         class="st1"
         d="m 341.3,376.4 -0.6,-0.5 c -3,-2.2 -3.4,-4.8 -3.8,-7 v -0.1 c -1.4,-14.7 1.3,-27 8.2,-37.5 0.9,-1.4 2.1,-2.7 3.4,-4.3 0.5,-0.6 1.1,-1.3 1.7,-2 l 1,-1.2 0.5,1.4 0.6,1.5 c 0.6,1.6 1.2,2.9 1.4,4.2 2.8,13.6 0.1,27.2 -7.9,40.5 -0.7,1.1 -1.7,2.1 -2.8,3.1 -0.4,0.4 -0.8,0.8 -1.3,1.2 z m 9.4,-49 c -0.3,0.3 -0.5,0.6 -0.7,0.8 -1.3,1.5 -2.4,2.7 -3.2,4 -6.7,10.2 -9.3,22.1 -8,36.3 0.3,1.9 0.6,3.7 2.5,5.4 l 0.7,-0.7 c 1,-0.9 2,-1.8 2.5,-2.7 7.7,-12.8 10.3,-26 7.6,-39.1 -0.3,-1.1 -0.8,-2.4 -1.4,-4 0,0.1 0,0 0,0 z"
         id="path118"
         style="fill:#ffffff" />
    </g>
    <g
       id="sc-logo-chevron-pair-2">
      <path
         class="st1"
         d="m 695.1,348.4 c -1.1,2.2 -2,3.6 -2.5,5.4 -4.7,13.9 -3.4,27.2 2.3,40.5 0.7,1.6 1.8,3.4 4,4.1 2.5,-1.6 3.2,-4.3 3.8,-7 2,-7.9 2.2,-16.2 0.7,-24.1 -1.3,-6.9 -3.3,-13.2 -8.3,-18.9 z"
         id="path119"
         style="fill:#ffffff" />
      <path
         class="st1"
         d="m 699,399.4 -0.4,-0.1 c -2.5,-0.8 -3.7,-2.9 -4.5,-4.6 -6.1,-14.2 -6.9,-27.7 -2.4,-41.2 0.4,-1.4 1,-2.6 1.8,-3.9 0.3,-0.5 0.5,-1 0.8,-1.6 l 0.6,-1.2 0.9,1 c 5.5,6.3 7.4,13.3 8.5,19.3 1.5,8.2 1.2,16.6 -0.7,24.5 -0.6,2.8 -1.4,5.8 -4.2,7.6 z M 695.2,350 c -0.1,0.1 -0.1,0.3 -0.2,0.4 -0.7,1.4 -1.3,2.4 -1.6,3.7 -4.4,13.1 -3.7,26.1 2.3,39.9 0.6,1.3 1.4,2.8 3,3.5 1.9,-1.5 2.5,-3.8 3,-6.2 1.9,-7.7 2.2,-15.9 0.7,-23.8 -1,-5.8 -2.6,-11.9 -7.2,-17.5 z m -369.8,48.2 c 10.1,-7 12.1,-38.5 3.1,-49.7 -1.3,2 -2.5,3.6 -3.4,5.4 -6.1,12.6 -6.5,25.7 -3.1,39.1 0.5,2.2 1.2,4.2 3.4,5.2 z"
         id="path120"
         style="fill:#ffffff" />
      <path
         class="st1"
         d="M 325.5,399.3 325,399 c -2.6,-1.3 -3.4,-3.7 -3.9,-5.8 -3.8,-14.6 -2.7,-27.6 3.1,-39.7 0.6,-1.3 1.4,-2.4 2.2,-3.6 0.4,-0.6 0.8,-1.2 1.2,-1.9 l 0.7,-1.1 0.8,1 c 5.8,7.2 6.9,21.3 5.3,32 -1.3,9.2 -4.4,16.1 -8.6,19 z m 3,-49.2 c -0.2,0.3 -0.4,0.6 -0.6,0.8 -0.8,1.2 -1.5,2.3 -2.1,3.4 -5.7,11.7 -6.6,24.2 -3,38.4 0.5,2.1 1.1,3.5 2.5,4.4 3.5,-2.8 6.2,-9.1 7.4,-17.4 1.7,-11.5 -0.1,-23.4 -4.2,-29.6 z"
         id="path121"
         style="fill:#ffffff" />
    </g>
    <g
       id="sc-logo-chevron-pair-1">
      <path
         class="st1"
         d="m 376.2,308.6 c -1.3,0.9 -2.2,1.6 -3.1,2.3 -11,10.6 -15.1,23.9 -15.3,38.9 0,1.8 0.2,3.8 2,5 11.3,-4.3 21.4,-32.5 16.4,-46.2 z"
         id="path122"
         style="fill:#ffffff" />
      <path
         class="st1"
         d="m 359.7,355.9 -0.4,-0.3 c -2.1,-1.5 -2.4,-3.6 -2.4,-5.8 0.2,-16.7 5.3,-29.6 15.6,-39.5 1,-0.8 1.9,-1.5 3.2,-2.4 l 1,-0.7 0.4,1.1 c 5.2,14.1 -5.1,42.9 -16.9,47.4 z m 16,-45.9 c -0.8,0.6 -1.4,1.1 -2,1.6 -9.9,9.5 -14.8,22.1 -15,38.2 0,1.8 0.2,3.1 1.2,4 10.5,-4.6 19.7,-30.4 15.8,-43.8 z m 272,-1.1 c -1.6,5.4 -1.8,8.5 -0.7,15.7 1.6,9.7 5.6,18.4 11.7,26.1 1.4,1.8 3.1,3.8 5.6,4.1 6.8,-9.3 -4.2,-39.6 -16.6,-45.9 z"
         id="path123"
         style="fill:#ffffff" />
      <path
         class="st1"
         d="m 664.7,355.8 -0.5,-0.1 c -2.9,-0.4 -4.7,-2.7 -6.2,-4.5 -6.3,-7.9 -10.3,-16.9 -11.9,-26.5 -1.1,-7.3 -0.9,-10.4 0.7,-16.1 l 0.3,-1 1,0.5 c 8.2,4.2 15.2,17.7 17.9,28.8 2,8.3 1.6,14.8 -1,18.4 z m -16.5,-45.5 c -1.3,4.7 -1.3,7.7 -0.4,14.2 1.6,9.3 5.4,18 11.5,25.7 1.2,1.5 2.5,3.2 4.5,3.7 2,-3.3 2.2,-9.2 0.4,-16.5 -2.3,-10.1 -8.7,-22.7 -16,-27.1 z"
         id="path124"
         style="fill:#ffffff" />
    </g>
  </g>
  <g
     id="sc-logo-arc-4"
     transform="matrix(0.19490139,0,0,0.19490139,-48.297687,-38.680565)">
    <path
       class="st1"
       d="m 705.1,428.1 c -5.2,-12.2 -11.7,-23.9 -19.3,-34.9 -7.6,-10.8 -16,-21.1 -25.6,-30.4 -9.5,-9.4 -19.8,-17.8 -31,-25 -2.3,-1.6 -4.7,-3.1 -7.2,-4.5 55.3,36.4 91.8,99.4 91.8,171 v 4 c 0,52 -20.3,99.2 -53.7,134.7 -36.9,40.2 -89.5,65.4 -148,65.4 -58.5,0 -111.1,-25.2 -148,-65.4 -33.5,-35.5 -53.8,-82.8 -53.8,-134.7 v -4 c 0,-71.7 36.6,-134.7 91.8,-171 -2.5,1.4 -4.9,3.1 -7.2,4.5 -11.2,7.4 -21.4,15.8 -31,25 -9.5,9.4 -18,19.6 -25.6,30.4 -7.6,11 -14,22.7 -19.3,34.9 -11,25.4 -16.4,52.2 -16.4,80.1 0,27.9 5.6,54.7 16.4,80.1 5.2,12.2 11.7,23.9 19.3,34.9 7.6,10.8 16,21.1 25.6,30.4 9.5,9.4 19.8,17.8 31,25 11.2,7.4 23.2,13.9 35.6,18.9 25.7,10.8 53.3,16.2 81.6,16.2 28.3,0 55.6,-5.4 81.6,-16.2 12.4,-5.2 24.3,-11.5 35.6,-18.9 11.2,-7.4 21.4,-15.8 31,-25 9.5,-9.4 18,-19.6 25.6,-30.4 7.6,-11 14,-22.7 19.3,-34.9 11,-25.4 16.4,-52.2 16.4,-80.1 0,-27.9 -5.7,-54.7 -16.5,-80.1 z"
       id="path127"
       style="fill:#ffffff" />
    <path
       class="st1"
       d="m 512.3,714.8 c -28.6,0 -56.2,-5.5 -81.9,-16.3 -12.2,-4.9 -24.2,-11.3 -35.8,-19 -10.6,-6.9 -21.1,-15.3 -31.1,-25.1 -9.1,-8.9 -17.7,-19.2 -25.7,-30.6 A 197.6,197.6 0 0 1 318.4,588.7 C 307.5,563.1 302,536 302,508.3 c 0,-28.2 5.5,-55.2 16.5,-80.5 5.2,-12.2 11.7,-24 19.4,-35.1 8,-11.4 16.6,-21.7 25.7,-30.6 10.1,-9.7 20.5,-18.1 31.1,-25.1 0.9,-0.6 1.8,-1.1 2.7,-1.7 1.5,-0.9 3,-1.9 4.6,-2.8 l 0.9,1.5 c -57.2,37.7 -91.4,101.3 -91.4,170.3 v 4 c 0,49.8 19,97.5 53.6,134.1 38.6,42 90.9,65.1 147.3,65.1 56.4,0 108.8,-23.1 147.3,-65.1 34.4,-36.7 53.4,-84.3 53.4,-134.1 v -4 c 0,-69 -34.2,-132.6 -91.4,-170.3 l 0.9,-1.5 c 2.8,1.6 5.1,3 7.3,4.5 10.6,6.8 21.1,15.3 31.1,25.1 9.1,8.9 17.7,19.2 25.7,30.6 a 197.6,197.6 0 0 1 19.4,35.1 c 11,25.9 16.6,53 16.6,80.5 0,28.2 -5.5,55.2 -16.5,80.5 -5.2,12.2 -11.7,24 -19.4,35.1 -8,11.4 -16.6,21.6 -25.7,30.6 -10.1,9.7 -20.5,18.1 -31.1,25.1 -11.3,7.4 -23.4,13.8 -35.8,19 -25.9,10.7 -53.5,16.2 -81.9,16.2 z M 367.7,360.7 c -1,0.9 -2,1.8 -2.9,2.8 -9,8.8 -17.6,19 -25.5,30.3 -7.6,11 -14,22.7 -19.2,34.8 -10.8,25 -16.3,51.9 -16.3,79.8 0,27.5 5.5,54.3 16.3,79.8 5.1,12.1 11.6,23.8 19.2,34.8 7.9,11.3 16.5,21.5 25.5,30.3 9.9,9.7 20.3,18.1 30.8,24.9 11.5,7.6 23.4,13.9 35.5,18.8 25.5,10.7 52.9,16.1 81.2,16.1 28.2,0 55.5,-5.4 81.2,-16.1 12.3,-5.2 24.3,-11.5 35.5,-18.8 10.5,-6.9 20.8,-15.3 30.8,-24.9 9,-8.8 17.6,-19 25.5,-30.3 7.6,-11 14,-22.7 19.2,-34.8 10.8,-25 16.3,-51.9 16.3,-79.8 0,-27.2 -5.5,-54.1 -16.5,-79.8 -5.1,-12.1 -11.6,-23.8 -19.2,-34.8 -7.9,-11.3 -16.5,-21.5 -25.5,-30.3 -1.2,-1.1 -2.3,-2.3 -3.5,-3.4 37.3,38 58.7,89.5 58.7,144.3 v 4 c 0,50.2 -19.1,98.3 -53.9,135.3 -18.8,20.5 -41.1,36.6 -66.2,47.9 -26,11.7 -53.8,17.7 -82.5,17.7 -28.7,0 -56.5,-6 -82.5,-17.7 -25.1,-11.3 -47.4,-27.5 -66.2,-47.9 -34.9,-36.9 -54.1,-85 -54.1,-135.3 v -4 c 0.2,-54.6 21.3,-105.8 58.3,-143.7 z"
       id="path128"
       style="fill:#ffffff" />
  </g>
  <g
     id="sc-logo-bottom"
     transform="matrix(0.19490139,0,0,0.19490139,-48.297687,-38.680565)">
    <path
       class="st1"
       d="m 464.2,717.1 c -2.2,0.5 -3.6,2.9 -3.1,5 l 0.9,3.4 c 0.5,2.2 2.9,3.6 5,3.1 l 44.5,-11.3 c 0.2,0 0.4,-0.2 0.7,-0.2 0.2,0 0.4,0.2 0.7,0.2 l 44.5,11.3 c 2.2,0.5 4.5,-0.7 5,-3.1 l 0.9,-3.4 c 0.5,-2.2 -0.7,-4.5 -3.1,-5 L 536.3,711 h -48.1 z"
       id="path135"
       style="fill:#ffffff" />
    <path
       class="st1"
       d="m 558.5,729.7 c -0.4,0 -0.8,0 -1.2,-0.1 l -44.4,-11.3 c -0.3,0 -0.5,-0.1 -0.7,-0.2 h -0.1 c -0.1,0 -0.2,0.1 -0.4,0.1 l -44.4,11.3 c -1.3,0.3 -2.7,0.1 -3.8,-0.6 -1.2,-0.7 -2,-1.8 -2.3,-3.1 l -0.9,-3.4 c -0.7,-2.6 1.1,-5.5 3.7,-6.1 l 24.3,-6.1 h 48.2 l 24.1,6.1 c 1.3,0.3 2.4,1.1 3.1,2.2 0.7,1.2 0.9,2.6 0.6,3.9 l -0.9,3.4 c -0.3,1.3 -1.1,2.4 -2.2,3.1 -0.8,0.5 -1.8,0.8 -2.7,0.8 z m -46.2,-13.5 c 0.3,0 0.5,0.1 0.6,0.1 h 0.3 l 44.5,11.3 c 0.8,0.2 1.8,0.1 2.5,-0.4 0.7,-0.4 1.2,-1.2 1.4,-2 l 0.9,-3.4 c 0.2,-0.8 0.1,-1.8 -0.4,-2.5 -0.4,-0.7 -1.2,-1.2 -2,-1.4 l -23.9,-6.1 h -47.8 l -24,6.1 c -1.7,0.4 -2.8,2.3 -2.4,4 l 0.9,3.4 c 0.2,0.8 0.8,1.5 1.5,2 0.8,0.5 1.6,0.6 2.4,0.4 l 44.6,-11.4 c 0.3,0 0.5,-0.1 0.9,-0.1 z"
       id="path136"
       style="fill:#ffffff" />
  </g>
  <path
     style="fill:#ffffff;fill-opacity:1;fill-rule:evenodd;stroke:none;stroke-width:0.249474px;stroke-linecap:butt;stroke-linejoin:miter;stroke-opacity:1"
     d="m 54.390207,2.7093474 -4.595139,14.9346096 3.442823,0.04361 0.747358,-2.758791 4.173532,0.366931 -0.360569,-2.16905 -3.292872,-0.248106 1.451895,-6.1804765 2.916478,0.2230599 -0.938084,-4.2761058 z"
     id="path137" />
  <path
     style="fill:#ffffff;fill-opacity:1;fill-rule:evenodd;stroke:none;stroke-width:0.249474px;stroke-linecap:butt;stroke-linejoin:miter;stroke-opacity:1"
     d="m 61.203262,18.651362 -2.129988,-0.317898 -0.778901,-3.004648 -0.815236,-0.33967 0.278652,-1.973778 -1.665856,-6.6247727 2.715066,0.1171299 z"
     id="path138" />
  <ellipse
     style="fill:#ffffff;fill-opacity:1;stroke:none;stroke-width:0.209973;stroke-linecap:round;stroke-linejoin:round;stroke-opacity:1"
     id="path139"
     cx="51.487888"
     cy="61.106892"
     rx="31.111673"
     ry="30.641861" />
  <path
     opacity="1"
     fill="#1e3050"
     d="M 53.384599,31.184506 48.68938,34.69895 c -0.74933,0.556114 -1.181116,1.44489 -1.181116,2.375496 v 1.263436 c 0,0.944223 0.764447,1.708673 1.708666,1.708673 0.332663,0 0.667008,-0.100813 0.944218,-0.292339 l 5.806612,-3.875839 c 0.277218,-0.179766 0.611555,-0.292332 0.944218,-0.292332 h 0.13441 c 0.861894,0 1.569217,0.709004 1.569217,1.569217 0,0.416672 -0.168013,0.819889 -0.45867,1.110553 l -2.764441,2.764266 c -0.806452,0.806455 -1.792003,1.416334 -2.875502,1.778228 l -3.681275,1.22312 c -0.80645,0.263768 -1.334004,1.014777 -1.334004,1.86138 0,0.514115 -0.208328,1.014783 -0.569556,1.389444 l -2.48672,2.486725 c -0.888775,0.88877 -1.374324,2.083664 -1.374324,3.333835 v 0.598112 c 0,2.27822 1.889278,4.125667 4.153549,4.125667 1.527214,0 2.94506,-0.861902 3.625668,-2.222614 l 0.556114,-1.125662 c 0.332663,-0.667013 1.028226,-1.097112 1.778222,-1.097112 0.624999,0 1.207997,0.292332 1.58434,0.791325 l 2.264444,3.014441 c 0.292333,0.40323 0.76445,0.624998 1.263435,0.624998 1.165992,0 1.930947,-1.236554 1.402891,-2.27822 l -0.151211,-0.319222 c -0.485549,-0.972772 0,-2.153219 1.041657,-2.50049 l 2.94506,-0.986227 c 1.055105,-0.347778 1.764281,-1.333998 1.764281,-2.444883 0,-1.431449 1.152544,-2.583832 2.583831,-2.583832 h 4.07005 c 1.22312,0 2.222775,0.999662 2.222775,2.222606 0,1.22312 -0.999655,2.222606 -2.222775,2.222606 h -2.8755 c -0.999659,0 -1.972611,0.403231 -2.68094,1.112241 l -0.653564,0.653551 c -0.292336,0.292339 -0.458663,0.693882 -0.458663,1.110554 0,0.861894 0.709,1.569217 1.569216,1.569217 h 1.569217 c 0.833332,0 1.639781,0.332662 2.222609,0.917333 l 0.902221,0.902219 c 0.250334,0.250336 0.389775,0.598112 0.389775,0.944217 0,0.347778 -0.134405,0.693883 -0.389775,0.944218 l -1.041671,1.041662 c -0.500672,0.527553 -0.77789,1.207995 -0.77789,1.917002 0,0.709004 0.277218,1.389445 0.791333,1.903049 l 2.54216,2.542172 c 1.416334,1.416321 3.347782,2.222608 5.362052,2.222608 h 1.028225 C 80.354467,66.118401 80.8417,63.131683 80.8417,60.033908 80.8417,44.558804 68.672701,31.917536 53.37821,31.181319 Z M 77.278035,73.956257 C 76.763919,73.595034 76.138918,73.3867 75.472087,73.3867 c -0.833337,0 -1.639785,-0.332653 -2.222612,-0.917335 l -1.847608,-1.875333 c -1.07023,-1.070227 -2.500503,-1.66666 -4.014607,-1.66666 -1.347448,0 -2.667169,-0.485554 -3.695225,-1.360887 l -3.681104,-3.167329 c -1.611223,-1.376004 -3.667338,-2.139282 -5.792838,-2.139282 h -2.903211 c -1.750336,0 -3.472947,0.514115 -4.931618,1.486899 l -3.806268,2.542161 c -2.472607,1.653225 -3.958997,4.431447 -3.958997,7.404223 v 0.443547 c 0,2.361553 0.930776,4.625992 2.597775,6.292829 l 2.222609,2.222771 c 1.181114,1.181118 2.778223,1.847448 4.445221,1.847448 h 2.958825 c 1.847617,0 3.334004,1.486889 3.334004,3.333995 0,0.347787 0.05039,0.693884 0.151209,1.014787 9.904548,-0.806449 18.406211,-6.61239 22.948712,-14.891768 z M 16.391567,60.037103 a 35.562258,35.562258 0 1 1 71.124513,0 35.562258,35.562258 0 1 1 -71.124513,0 z M 42.41033,38.463559 c -0.861895,-0.861901 -2.278225,-0.861901 -3.139446,0 l -4.445219,4.445387 c -0.861891,0.861887 -0.861891,2.278052 0,3.139439 0.86189,0.861894 2.278223,0.861894 3.139444,0 l 4.445221,-4.44538 c 0.861889,-0.861901 0.861889,-2.278052 0,-3.139446 z"
     id="path1"
     style="fill:#252525;fill-opacity:1;stroke-width:0.138915"
     inkscape:export-filename="StarTrad_logo_256.png"
     inkscape:export-xdpi="36.141178"
     inkscape:export-ydpi="36.141178" />
</svg>
